<?xml version="1.0" standalone="no"?>
<!DOCTYPE svg PUBLIC "-//W3C//DTD SVG 20010904//EN"
 "http://www.w3.org/TR/2001/REC-SVG-20010904/DTD/svg10.dtd">
<svg version="1.0" xmlns="http://www.w3.org/2000/svg"
 width="230.000000pt" height="230.000000pt" viewBox="0 0 230.000000 230.000000"
 preserveAspectRatio="xMidYMid meet">
<metadata>
Created by potrace 1.14, written by Peter Selinger 2001-2017
</metadata>
<g transform="translate(0.000000,230.000000) scale(0.100000,-0.100000)"
fill="#000000" stroke="none">
<path d="M713 2287 c0 -8 6 -14 14 -14 9 0 10 4 2 14 -6 7 -12 13 -14 13 -1 0
-2 -6 -2 -13z"/>
<path d="M811 2293 c-1 -17 16 -25 25 -12 4 7 3 9 -4 5 -5 -3 -13 0 -15 6 -4
9 -6 10 -6 1z"/>
<path d="M754 2272 c-10 -15 -8 -18 10 -19 11 -1 16 1 9 4 -7 2 -9 11 -6 19 7
20 0 18 -13 -4z"/>
<path d="M850 2286 c0 -3 9 -10 20 -16 11 -6 20 -8 20 -6 0 3 -9 10 -20 16
-11 6 -20 8 -20 6z"/>
<path d="M787 2269 c7 -7 15 -10 18 -7 3 3 -2 9 -12 12 -14 6 -15 5 -6 -5z"/>
<path d="M690 2250 c22 -22 26 -40 10 -40 -5 0 -10 5 -10 11 0 6 -7 4 -15 -5
-8 -8 -15 -20 -15 -26 0 -6 -4 -9 -9 -5 -5 3 -13 1 -16 -5 -4 -6 -1 -9 7 -8
16 4 19 -51 4 -71 -8 -11 -8 -13 0 -8 7 4 14 0 17 -8 4 -8 15 -12 27 -10 13 2
20 -1 20 -11 0 -17 -20 -19 -20 -1 0 6 -5 4 -11 -6 -10 -18 3 -48 19 -45 4 0
14 0 22 -1 13 -1 13 -2 0 -11 -8 -5 -10 -10 -4 -10 6 0 11 -7 11 -16 0 -15 -2
-14 -13 1 -8 10 -11 21 -9 26 3 4 -5 4 -17 1 -19 -5 -20 -7 -5 -10 9 -2 15 -8
12 -13 -4 -5 -1 -9 5 -9 22 0 5 -45 -22 -60 -27 -15 -27 -16 -8 -28 16 -10 20
-10 20 0 0 10 2 10 9 0 7 -11 9 -10 14 3 4 9 3 13 -2 10 -5 -3 -12 -1 -15 4
-3 5 3 11 13 14 14 3 18 -1 17 -17 -1 -22 -26 -47 -38 -40 -4 3 -5 -1 -2 -9 4
-12 -5 -14 -46 -13 -28 1 -54 -2 -57 -6 -2 -5 -5 -30 -6 -56 0 -26 -2 -41 -4
-34 -8 20 -22 13 -18 -9 3 -16 0 -19 -13 -15 -16 6 -16 5 1 -8 20 -16 23 -28
4 -20 -9 3 -13 -5 -13 -26 0 -20 4 -29 12 -26 7 3 12 -5 12 -20 0 -22 -9 -29
-30 -25 -5 0 -8 -4 -8 -9 0 -6 7 -10 16 -8 12 2 17 -5 18 -28 1 -22 -3 -31
-14 -30 -8 1 -15 -6 -15 -14 0 -10 -10 -15 -28 -15 -30 0 -48 -20 -40 -42 3
-7 -2 -13 -11 -13 -9 0 -16 -5 -16 -11 0 -5 -4 -7 -10 -4 -5 3 -10 -1 -10 -11
0 -13 -3 -14 -14 -5 -11 9 -16 9 -22 -1 -4 -7 -4 -10 1 -6 4 4 14 3 22 -3 15
-13 18 -33 3 -24 -5 3 -10 1 -10 -4 0 -6 4 -11 9 -11 5 0 8 -14 7 -30 -1 -17
4 -36 11 -41 7 -6 11 -15 8 -19 -3 -4 3 -14 13 -21 16 -13 16 -13 2 5 -13 17
-13 19 0 14 8 -2 15 -12 15 -21 0 -9 6 -22 14 -29 12 -11 13 -10 8 3 -3 9 0
16 8 16 8 0 11 -7 7 -15 -4 -11 -2 -13 9 -7 12 8 12 6 0 -8 -11 -14 -11 -17 0
-17 7 0 3 -7 -9 -16 -12 -8 -20 -19 -18 -23 3 -4 -1 -8 -9 -8 -16 0 -20 12 -7
20 4 2 1 2 -6 0 -8 -1 -12 3 -9 9 2 7 10 12 16 10 7 -1 9 2 5 9 -5 8 -2 10 7
4 8 -4 1 4 -16 19 -16 14 -34 25 -39 26 -4 0 2 -8 15 -19 20 -16 21 -21 10
-35 -11 -13 -11 -20 4 -42 9 -15 12 -24 7 -20 -12 7 -35 -28 -25 -37 3 -4 -1
-9 -10 -13 -10 -3 -13 -12 -9 -22 5 -15 4 -16 -14 -2 -18 14 -18 14 -2 -6 20
-23 24 -39 8 -29 -5 3 -10 1 -10 -4 0 -6 5 -11 10 -11 6 0 10 -7 10 -15 0 -8
-6 -15 -12 -15 -9 0 -8 -4 2 -10 8 -5 11 -10 5 -10 -5 0 -2 -7 9 -15 12 -9 17
-22 13 -35 -3 -11 -1 -20 5 -20 5 0 7 -4 3 -9 -3 -6 5 -15 17 -21 19 -9 21 -9
8 2 -17 15 -24 38 -11 38 5 0 11 -7 14 -15 4 -8 15 -12 27 -10 11 2 18 0 16
-4 -3 -4 4 -15 15 -25 13 -11 18 -23 14 -36 -4 -12 -2 -20 5 -20 6 0 8 5 5 10
-13 22 12 8 39 -20 16 -17 31 -28 34 -25 3 3 -3 12 -14 20 -18 14 -17 14 9 5
16 -6 32 -8 37 -5 4 3 11 -2 14 -11 3 -8 11 -12 17 -8 8 4 9 3 5 -5 -6 -9 -11
-9 -22 0 -10 8 -14 8 -14 0 0 -11 15 -16 35 -11 38 8 45 8 40 -1 -6 -8 7 -13
30 -10 6 1 1 -6 -10 -15 -18 -15 -18 -16 -1 -10 10 3 24 2 31 -4 10 -8 15 -8
21 1 4 8 3 9 -4 5 -8 -5 -10 -2 -6 9 5 13 10 10 28 -13 11 -16 24 -30 29 -31
4 0 7 -3 7 -6 0 -3 6 -18 14 -34 9 -16 13 -31 10 -33 -2 -3 4 -11 13 -19 17
-13 17 -13 3 5 -14 18 -13 19 5 12 18 -7 18 -5 -2 14 -13 11 -23 26 -23 33 0
7 5 4 11 -6 6 -9 15 -15 20 -11 5 3 8 0 7 -7 -2 -7 14 -21 35 -31 25 -12 37
-24 34 -33 -6 -13 21 -30 31 -20 3 3 -1 5 -8 5 -7 0 -11 2 -8 5 10 10 37 -7
32 -20 -3 -7 0 -16 7 -21 7 -4 10 -3 5 4 -3 6 -2 13 3 16 17 11 22 -12 5 -28
-18 -18 -11 -21 16 -6 15 8 18 7 14 -3 -3 -8 1 -21 9 -28 11 -12 47 -76 47
-86 0 -1 -5 -3 -12 -3 -6 0 -8 3 -5 7 4 3 1 13 -7 22 -8 9 -14 18 -13 21 3 9
-32 54 -38 49 -2 -3 4 -15 15 -27 12 -12 18 -22 14 -22 -4 0 0 -8 9 -18 10
-10 14 -21 11 -25 -6 -6 37 -32 48 -29 4 1 5 -5 2 -13 -4 -8 -11 -12 -18 -8
-7 5 -7 2 1 -8 7 -9 8 -20 3 -29 -5 -8 -5 -21 1 -32 5 -10 6 -18 2 -18 -4 0 3
-10 17 -21 14 -11 19 -18 13 -14 -13 6 -15 0 -16 -42 0 -12 -3 -20 -8 -17 -4
2 -6 12 -3 22 5 14 4 14 -4 3 -6 -8 -8 -21 -4 -29 4 -11 1 -13 -8 -7 -9 6 -11
4 -5 -5 4 -7 2 -16 -6 -21 -10 -6 -11 -9 -1 -9 6 0 12 -5 12 -11 0 -5 -4 -8
-9 -5 -4 3 -8 -9 -7 -27 l1 -32 254 -3 c183 -2 251 0 246 8 -4 6 -2 16 3 23 7
8 4 23 -9 47 -12 21 -18 27 -17 15 2 -11 8 -24 13 -28 6 -5 4 -7 -5 -4 -10 2
-15 17 -15 43 0 21 -5 46 -10 54 -5 8 -10 32 -11 53 -1 31 2 37 15 32 12 -5
13 -3 5 5 -6 6 -20 12 -31 12 -11 1 -20 10 -20 20 -2 19 12 25 20 8 3 -6 4 -5
3 2 -1 7 -13 15 -27 19 -20 6 -21 7 -4 8 16 1 17 3 6 10 -8 5 -23 8 -34 5 -11
-2 -17 -1 -14 3 3 3 -4 20 -17 37 -13 17 -21 37 -19 44 4 10 -8 16 -29 13 -7
-1 -5 20 5 35 11 19 -5 25 -20 6 -8 -9 -12 -11 -8 -4 3 6 0 12 -7 13 -7 0 -3
4 10 10 14 5 20 13 16 20 -4 8 -3 9 4 5 7 -4 12 -2 12 5 0 7 3 10 6 6 3 -3 17
-2 30 3 14 6 26 6 29 0 4 -6 0 -11 -7 -11 -7 -1 -17 -2 -23 -4 -5 -1 -17 -3
-25 -4 -13 -1 -13 -2 0 -11 8 -5 10 -10 4 -10 -6 0 -11 -7 -11 -14 0 -8 3 -14
6 -13 3 1 15 -4 27 -10 16 -10 21 -9 21 2 0 7 -7 11 -15 7 -10 -3 -13 -1 -8 7
4 6 2 19 -6 28 -11 14 -11 16 3 11 19 -8 42 5 45 25 1 10 -5 14 -17 12 -10 -2
-21 0 -24 5 -3 4 3 7 12 5 10 -1 26 4 36 13 9 8 17 12 17 8 0 -4 9 -2 21 4 15
9 24 8 37 -2 11 -9 14 -10 8 0 -4 6 -2 12 3 12 6 0 11 -4 11 -10 0 -5 5 -10
11 -10 8 0 7 5 -1 15 -7 9 -19 14 -27 11 -8 -3 -12 -2 -9 3 7 11 82 8 93 -3 5
-5 2 -6 -6 -1 -10 5 -12 4 -7 -4 11 -17 28 -2 21 18 -3 12 1 17 15 18 11 1 20
-4 20 -10 0 -7 4 -6 10 3 5 8 10 11 10 6 0 -5 7 -3 15 4 8 7 13 15 11 19 -3 4
6 7 20 6 14 0 29 -7 34 -15 13 -20 13 -4 1 19 -7 12 -6 18 2 19 24 2 47 8 53
15 4 4 14 1 23 -6 14 -10 14 -10 4 3 -9 12 -8 20 3 35 13 17 16 18 24 5 6 -9
10 -10 10 -3 0 7 -8 17 -17 23 -16 10 -15 11 5 6 20 -4 22 -2 10 12 -11 14 -8
14 16 -2 17 -11 25 -13 20 -5 -13 22 -12 68 2 62 7 -3 10 4 7 20 -3 14 0 27 5
31 6 4 8 -3 6 -16 -4 -21 -3 -20 7 2 6 14 12 41 14 60 1 19 7 46 12 60 6 14 8
32 6 40 -3 11 0 10 10 -3 14 -17 15 -17 21 0 4 10 4 14 0 11 -6 -7 -34 15 -34
26 0 4 12 4 26 2 15 -3 23 -2 19 2 -3 4 -11 8 -16 8 -5 1 -13 2 -18 3 -17 2
-20 31 -5 46 9 8 12 15 7 15 -5 0 -14 -5 -20 -11 -9 -9 -11 -6 -9 12 1 14 6
31 11 38 6 10 4 12 -4 7 -8 -5 -12 -3 -10 5 4 30 -1 41 -16 35 -9 -3 -15 0
-15 10 0 9 5 13 13 9 6 -4 3 2 -8 12 -14 12 -20 29 -19 52 1 27 0 31 -8 18 -5
-10 -7 -21 -4 -25 3 -5 -1 -9 -8 -9 -15 0 -15 14 -3 35 6 8 2 12 -12 12 -12 0
-21 4 -21 10 0 5 6 7 14 4 8 -3 17 0 22 7 4 7 3 10 -4 6 -17 -11 -41 3 -35 21
4 13 2 12 -10 -3 -9 -11 -17 -15 -17 -8 0 7 -3 12 -7 12 -5 -1 -17 -1 -27 0
-20 1 -20 1 0 16 18 15 18 15 0 8 -13 -4 -17 -3 -12 5 4 7 3 12 -3 12 -5 0
-11 -5 -13 -12 -3 -7 -7 -5 -11 6 -4 10 -3 15 3 11 6 -3 7 1 4 10 -6 14 -9 14
-23 2 -17 -15 -41 -12 -41 4 0 6 4 8 8 5 4 -2 14 0 22 6 12 8 11 9 -4 4 -14
-5 -17 -2 -12 11 4 11 -1 9 -14 -7 -11 -14 -19 -18 -18 -10 2 11 -6 15 -29 15
-17 0 -35 4 -39 8 -5 4 -1 5 8 2 9 -4 19 -2 23 4 3 6 -1 11 -10 11 -13 0 -14
4 -5 20 6 12 17 17 28 14 14 -5 14 -4 2 4 -8 6 -18 8 -22 6 -4 -3 -8 -1 -8 5
0 5 6 12 13 14 8 4 7 6 -3 6 -9 1 -22 17 -29 37 -10 27 -16 33 -22 23 -7 -11
-9 -11 -9 3 0 9 6 19 13 21 10 4 10 6 0 6 -7 1 -13 9 -13 19 0 14 -2 15 -10 2
-8 -13 -10 -13 -10 2 0 9 -5 20 -12 24 -7 4 -8 3 -4 -4 4 -7 2 -12 -3 -12 -14
0 -14 23 -1 36 7 7 6 11 -4 11 -8 0 -13 -4 -10 -9 3 -4 -2 -8 -11 -8 -9 0 -13
5 -9 11 4 8 1 8 -14 0 -18 -10 -23 -7 -37 16 -9 16 -14 20 -11 11 3 -10 1 -18
-4 -18 -6 0 -10 6 -10 13 0 8 -4 7 -10 -3 -6 -10 -10 -11 -10 -2 0 6 -7 12
-15 12 -8 0 -15 5 -15 12 0 6 -3 8 -7 4 -5 -4 0 -14 11 -21 18 -13 17 -14 -3
-12 -11 1 -21 6 -21 12 0 5 -4 4 -8 -3 -6 -9 -12 -6 -22 12 -7 14 -20 28 -28
31 -12 4 -13 3 -2 -9 10 -13 7 -15 -20 -11 -22 3 -37 -2 -52 -17 -16 -16 -20
-17 -15 -5 3 9 1 19 -5 23 -7 4 -8 3 -4 -4 4 -7 2 -12 -4 -12 -6 0 -9 -4 -6
-8 3 -5 -13 -8 -35 -8 -41 0 -46 5 -27 24 9 9 9 12 0 12 -7 0 -12 -4 -12 -10
0 -5 -8 -7 -17 -4 -11 4 -14 2 -8 -3 19 -15 11 -36 -15 -40 -18 -2 -21 -1 -10
6 8 5 19 7 25 4 5 -3 -1 6 -15 19 -14 14 -28 24 -31 22 -4 -2 -12 3 -19 11 -7
9 -21 13 -31 10 -11 -4 -19 -2 -19 4 0 5 8 12 18 14 10 3 6 5 -10 6 -16 0 -28
5 -28 10 0 5 -7 12 -16 15 -13 5 -14 4 -6 -7 9 -10 8 -14 -3 -14 -8 0 -15 4
-15 9 0 4 -5 8 -11 8 -5 0 -7 -5 -3 -11 4 -8 0 -7 -15 1 -12 6 -19 15 -16 21
4 5 2 9 -4 9 -5 0 -11 -5 -13 -11 -2 -7 -9 -5 -17 5 -12 14 -12 16 0 11 11 -4
15 3 17 25 3 37 -7 58 -18 40 -4 -6 -7 7 -6 29 0 23 5 36 10 31 4 -4 15 -6 24
-2 13 5 13 6 -2 12 -16 5 -15 8 7 32 20 21 22 28 10 32 -8 3 -11 1 -8 -4 4 -6
1 -9 -7 -8 -8 2 -12 -4 -10 -16 2 -11 -1 -17 -10 -14 -17 6 -17 43 0 43 7 0
16 5 20 10 11 15 35 18 26 3 -6 -10 -5 -11 8 -1 8 7 18 10 22 6 4 -4 4 1 0 11
-5 13 -4 17 3 13 7 -5 9 9 6 39 -3 32 0 44 7 39 7 -4 6 2 -2 14 -7 12 -23 21
-35 21 -13 0 -23 5 -23 10 0 6 -5 10 -11 10 -5 0 -8 -4 -5 -8 2 -4 -4 -9 -15
-9 -18 -2 -18 0 -4 20 8 12 15 26 15 32 -1 5 -6 1 -13 -11 -9 -16 -22 -20 -60
-21 -30 0 -44 3 -35 8 7 5 8 9 2 9 -6 0 -14 -3 -18 -7 -15 -15 -71 -10 -84 9
-7 10 -17 18 -23 18 -5 0 0 -9 11 -20z m26 -216 c-10 -7 -23 -11 -27 -8 -17
10 -9 19 18 21 26 1 26 0 9 -13z m376 -298 c3 -14 0 -23 -9 -23 -14 0 -14 0
-17 39 -2 21 0 25 9 18 7 -6 15 -21 17 -34z m38 -2 c0 -2 -7 -4 -15 -4 -8 0
-15 4 -15 10 0 5 7 7 15 4 8 -4 15 -8 15 -10z m-570 -74 c0 -5 -4 -10 -10 -10
-5 0 -10 5 -10 10 0 6 5 10 10 10 6 0 10 -4 10 -10z m1320 -955 c-7 -9 -15
-13 -17 -11 -6 6 20 36 26 30 2 -2 -2 -10 -9 -19z m-707 -409 c4 -10 1 -13 -8
-9 -8 3 -12 9 -9 14 7 12 11 11 17 -5z m27 -47 c13 -9 12 -10 -2 -5 -10 3 -18
1 -18 -4 0 -12 -22 -9 -32 4 -3 5 -4 15 -1 22 5 14 18 10 53 -17z m-25 -29 c3
-5 -1 -10 -10 -10 -9 0 -13 5 -10 10 3 6 8 10 10 10 2 0 7 -4 10 -10z m-25
-203 c0 -14 -26 0 -27 15 -2 16 0 16 13 4 8 -8 14 -16 14 -19z"/>
<path d="M831 2260 c-10 -5 -9 -8 2 -13 7 -3 19 -2 26 3 10 5 9 8 -2 13 -7 3
-19 2 -26 -3z"/>
<path d="M936 2253 c-6 -14 -5 -15 5 -6 7 7 10 15 7 18 -3 3 -9 -2 -12 -12z"/>
<path d="M656 2238 c3 -5 10 -6 15 -3 13 9 11 12 -6 12 -8 0 -12 -4 -9 -9z"/>
<path d="M948 2023 c7 -3 16 -2 19 1 4 3 -2 6 -13 5 -11 0 -14 -3 -6 -6z"/>
<path d="M655 2009 c-4 -6 -5 -12 -2 -15 2 -3 7 2 10 11 7 17 1 20 -8 4z"/>
<path d="M936 1999 c4 -8 30 -6 38 2 3 3 -5 5 -19 5 -13 0 -22 -3 -19 -7z"/>
<path d="M908 1956 c-17 -12 -17 -14 2 -31 11 -10 20 -13 20 -7 0 6 -6 13 -12
16 -9 3 -7 9 6 20 24 19 8 21 -16 2z"/>
<path d="M676 1945 c4 -8 8 -15 10 -15 2 0 4 7 4 15 0 8 -4 15 -10 15 -5 0 -7
-7 -4 -15z"/>
<path d="M936 1938 c3 -5 10 -6 15 -3 13 9 11 12 -6 12 -8 0 -12 -4 -9 -9z"/>
<path d="M970 1921 c0 -6 4 -13 10 -16 6 -3 7 1 4 9 -7 18 -14 21 -14 7z"/>
<path d="M629 1903 c-13 -16 -12 -17 4 -4 9 7 17 15 17 17 0 8 -8 3 -21 -13z"/>
<path d="M923 1894 c4 -4 2 -13 -5 -21 -8 -11 -7 -12 5 -7 12 4 15 1 12 -15
-2 -12 0 -21 6 -21 5 0 9 5 9 11 0 5 5 7 10 4 6 -3 10 -2 10 3 0 6 -7 13 -16
16 -8 3 -13 10 -10 15 3 5 -2 12 -11 15 -10 4 -14 4 -10 0z"/>
<path d="M649 1871 c9 -6 10 -11 2 -15 -6 -4 -15 -5 -20 -1 -5 3 -12 2 -15 -3
-3 -5 10 -8 29 -8 28 1 32 3 24 18 -5 10 -15 18 -22 18 -8 0 -8 -3 2 -9z"/>
<path d="M555 1800 c-3 -5 -1 -10 4 -10 6 0 11 5 11 10 0 6 -2 10 -4 10 -3 0
-8 -4 -11 -10z"/>
<path d="M1187 1799 c7 -7 15 -10 18 -7 3 3 -2 9 -12 12 -14 6 -15 5 -6 -5z"/>
<path d="M1118 1772 c4 -10 7 -12 10 -4 2 7 9 9 15 5 7 -3 8 -2 4 2 -14 16
-36 14 -29 -3z"/>
<path d="M1270 1778 c0 -4 4 -8 9 -8 6 0 12 4 15 8 3 5 -1 9 -9 9 -8 0 -15 -4
-15 -9z"/>
<path d="M1440 1785 c0 -2 6 -8 13 -14 10 -8 14 -7 14 2 0 8 -6 14 -14 14 -7
0 -13 -1 -13 -2z"/>
<path d="M1390 1770 c0 -5 5 -10 11 -10 5 0 7 5 4 10 -3 6 -8 10 -11 10 -2 0
-4 -4 -4 -10z"/>
<path d="M1610 1720 c0 -5 5 -10 11 -10 5 0 7 5 4 10 -3 6 -8 10 -11 10 -2 0
-4 -4 -4 -10z"/>
<path d="M1666 1615 c4 -8 11 -15 16 -15 6 0 5 6 -2 15 -7 8 -14 15 -16 15 -2
0 -1 -7 2 -15z"/>
<path d="M530 1610 c0 -5 5 -10 11 -10 5 0 7 5 4 10 -3 6 -8 10 -11 10 -2 0
-4 -4 -4 -10z"/>
<path d="M501 1584 c0 -11 3 -14 6 -6 3 7 2 16 -1 19 -3 4 -6 -2 -5 -13z"/>
<path d="M1690 1580 c0 -5 5 -10 10 -10 6 0 10 5 10 10 0 6 -4 10 -10 10 -5 0
-10 -4 -10 -10z"/>
<path d="M475 1571 c-3 -5 -2 -12 3 -15 5 -3 9 1 9 9 0 17 -3 19 -12 6z"/>
<path d="M535 1559 c-4 -6 -14 -8 -24 -5 -13 5 -13 4 2 -8 16 -13 16 -14 -5
-19 -12 -4 -19 -9 -16 -12 3 -4 16 -1 28 5 12 6 19 14 16 17 -3 4 -1 12 5 20
6 7 9 13 6 13 -3 0 -9 -5 -12 -11z"/>
<path d="M1710 1545 c0 -7 30 -13 34 -7 3 4 -4 9 -15 9 -10 1 -19 0 -19 -2z"/>
<path d="M1726 1504 c-9 -8 -16 -11 -16 -5 0 6 -5 11 -11 11 -8 0 -9 -4 0 -13
6 -8 9 -16 6 -19 -3 -2 4 -4 15 -3 11 1 23 5 27 10 5 4 2 5 -4 1 -16 -9 -17 6
-1 22 7 7 9 12 6 12 -4 0 -14 -7 -22 -16z"/>
<path d="M1790 1480 c-13 -8 -12 -10 3 -10 9 0 17 5 17 10 0 12 -1 12 -20 0z"/>
<path d="M434 1469 c-3 -6 -2 -15 3 -20 5 -5 9 -1 9 11 0 23 -2 24 -12 9z"/>
<path d="M1875 1424 c2 -4 0 -15 -6 -25 -7 -14 -6 -17 5 -13 14 5 16 29 3 39
-4 3 -5 2 -2 -1z"/>
<path d="M387 1279 c7 -9 10 -19 6 -22 -3 -4 -1 -7 5 -7 17 0 15 16 -5 31 -16
12 -17 12 -6 -2z"/>
<path d="M416 1197 c3 -10 9 -15 12 -12 3 3 0 11 -7 18 -10 9 -11 8 -5 -6z"/>
<path d="M2045 1160 c-4 -6 -11 -7 -17 -4 -7 4 -8 2 -4 -5 6 -8 12 -9 20 -2 7
6 17 7 21 3 5 -4 5 -1 1 6 -9 15 -13 15 -21 2z"/>
<path d="M401 1136 c-15 -18 5 -34 22 -17 9 9 7 10 -8 5 -18 -7 -18 -6 -6 9 7
9 11 17 8 17 -2 0 -10 -6 -16 -14z"/>
<path d="M347 1039 c7 -7 15 -10 18 -7 3 3 -2 9 -12 12 -14 6 -15 5 -6 -5z"/>
<path d="M2037 975 c-8 -19 12 -30 26 -16 9 9 8 11 -6 5 -13 -5 -16 -2 -11 10
3 9 4 16 1 16 -3 0 -7 -7 -10 -15z"/>
<path d="M2020 946 c0 -2 8 -10 18 -17 15 -13 16 -12 3 4 -13 16 -21 21 -21
13z"/>
<path d="M494 819 c-4 -7 -3 -9 4 -5 5 3 12 0 15 -6 2 -7 7 -10 11 -7 4 3 0
12 -8 18 -11 9 -16 9 -22 0z"/>
<path d="M1988 803 c7 -3 16 -2 19 1 4 3 -2 6 -13 5 -11 0 -14 -3 -6 -6z"/>
<path d="M475 780 c-3 -5 -1 -10 4 -10 6 0 11 5 11 10 0 6 -2 10 -4 10 -3 0
-8 -4 -11 -10z"/>
<path d="M636 707 c3 -10 9 -15 12 -12 3 3 0 11 -7 18 -10 9 -11 8 -5 -6z"/>
<path d="M698 703 c6 -2 12 -9 12 -14 0 -6 -5 -7 -12 -3 -7 5 -8 3 -3 -5 5 -9
11 -9 17 -3 12 12 2 32 -15 31 -9 0 -9 -2 1 -6z"/>
<path d="M804 673 c4 -7 2 -13 -3 -13 -6 0 -11 -4 -11 -8 0 -5 6 -9 14 -9 15
0 16 21 1 34 -4 4 -5 2 -1 -4z"/>
<path d="M757 655 c-4 -8 -3 -16 1 -19 4 -3 9 4 9 15 2 23 -3 25 -10 4z"/>
<path d="M835 639 c-4 -6 -5 -12 -2 -15 2 -3 7 2 10 11 7 17 1 20 -8 4z"/>
<path d="M1770 620 c0 -5 5 -10 10 -10 6 0 10 5 10 10 0 6 -4 10 -10 10 -5 0
-10 -4 -10 -10z"/>
<path d="M835 600 c3 -5 8 -10 11 -10 2 0 4 5 4 10 0 6 -5 10 -11 10 -5 0 -7
-4 -4 -10z"/>
<path d="M1513 557 c-4 -6 -1 -7 7 -2 9 6 12 4 8 -7 -4 -8 -1 -15 7 -15 7 0
11 5 9 12 -3 6 5 11 17 12 18 2 19 0 7 -15 -12 -15 -11 -16 5 -3 9 8 15 17 11
20 -10 10 -65 8 -71 -2z"/>
<path d="M923 554 c9 -3 15 -10 12 -15 -4 -5 -1 -9 5 -9 19 0 5 25 -16 27 -16
2 -16 1 -1 -3z"/>
<path d="M1595 541 c-3 -5 -2 -12 3 -15 5 -3 9 1 9 9 0 17 -3 19 -12 6z"/>
<path d="M960 500 c-9 -6 -10 -10 -3 -10 6 0 15 5 18 10 8 12 4 12 -15 0z"/>
<path d="M1000 491 c0 -6 4 -13 10 -16 6 -3 7 1 4 9 -7 18 -14 21 -14 7z"/>
<path d="M1420 456 c0 -11 70 -44 75 -35 4 5 3 8 -2 7 -4 -1 -23 6 -40 15 -18
10 -33 16 -33 13z"/>
<path d="M1046 402 c-3 -5 1 -9 9 -9 8 0 12 4 9 9 -3 4 -7 8 -9 8 -2 0 -6 -4
-9 -8z"/>
<path d="M1462 390 c7 -11 16 -20 20 -20 5 0 3 9 -4 20 -7 11 -16 20 -20 20
-5 0 -3 -9 4 -20z"/>
<path d="M1495 400 c-3 -5 -1 -10 4 -10 6 0 11 5 11 10 0 6 -2 10 -4 10 -3 0
-8 -4 -11 -10z"/>
<path d="M1073 355 c0 -8 4 -12 9 -9 4 3 8 9 8 15 0 5 -4 9 -8 9 -5 0 -9 -7
-9 -15z"/>
<path d="M1495 360 c-3 -5 -1 -10 4 -10 6 0 11 5 11 10 0 6 -2 10 -4 10 -3 0
-8 -4 -11 -10z"/>
<path d="M1070 317 c0 -2 6 -10 14 -16 11 -9 16 -9 22 1 4 7 4 10 -1 6 -4 -4
-14 -3 -22 3 -7 6 -13 9 -13 6z"/>
<path d="M1113 283 c4 -3 1 -13 -6 -22 -11 -14 -10 -14 6 -2 20 15 22 31 5 31
-6 0 -8 -3 -5 -7z"/>
<path d="M1620 240 c-9 -6 -10 -10 -3 -10 6 0 15 5 18 10 8 12 4 12 -15 0z"/>
<path d="M1076 218 c3 -5 10 -6 15 -3 13 9 11 12 -6 12 -8 0 -12 -4 -9 -9z"/>
<path d="M1115 220 c-3 -5 -1 -10 4 -10 6 0 11 5 11 10 0 6 -2 10 -4 10 -3 0
-8 -4 -11 -10z"/>
<path d="M1577 211 c-4 -17 -3 -21 5 -13 5 5 8 16 6 23 -3 8 -7 3 -11 -10z"/>
<path d="M1136 187 c3 -10 9 -15 12 -12 3 3 0 11 -7 18 -10 9 -11 8 -5 -6z"/>
<path d="M1116 155 c-9 -26 -7 -32 5 -12 6 10 9 21 6 23 -2 3 -7 -2 -11 -11z"/>
<path d="M1593 152 c0 -12 5 -22 9 -22 11 0 10 12 -2 30 -7 12 -9 10 -7 -8z"/>
<path d="M1630 121 c0 -6 4 -13 10 -16 6 -3 7 1 4 9 -7 18 -14 21 -14 7z"/>
<path d="M1610 111 c0 -6 4 -13 10 -16 6 -3 7 1 4 9 -7 18 -14 21 -14 7z"/>
<path d="M1076 93 c-6 -14 -5 -15 5 -6 7 7 10 15 7 18 -3 3 -9 -2 -12 -12z"/>
<path d="M1630 21 c0 -6 4 -13 10 -16 6 -3 7 1 4 9 -7 18 -14 21 -14 7z"/>
</g>
</svg>
